<svg xmlns="http://www.w3.org/2000/svg" data-aoc-kind="tower" data-aoc-key="t_cell"
  data-aoc-frame-width="72" data-aoc-frame-height="72" viewBox="0 0 288 72">
  <g data-aoc-editor-only="true"><rect width="288" height="72" fill="#fff0ee" /><text x="5" y="9" font-size="7" font-weight="700">Cytotoxic T Cell synapse launchers, tiers 1-4</text></g>
  <g data-aoc-panel="tier-0" transform="translate(36 36)">
    <g data-aoc-part="membrane" class="aoc-motion--breathe">
      <path class="t-cell-body" d="M-12-22C0-25 13-18 14-7C17 6 8 20-5 21C-19 23-27 13-25 0C-27-12-23-20-12-22Z" />
      <ellipse class="t-cell-nucleus" cx="-9" cy="1" rx="9" ry="8" />
    </g>
    <g data-aoc-part="receptors" class="aoc-motion--receptor">
      <path class="t-cell-receptor" d="M-18-17L-23-25M-18-17L-11-24M-20 13L-27 18" />
      <path class="t-cell-synapse" d="M8-14Q24-11 31 0Q24 11 8 14" />
      <path class="t-cell-lytic-channel" d="M5-7L24-4L32 0L24 4L5 7Z" />
    </g>
    <g data-aoc-part="granules" class="aoc-motion--granules">
      <circle class="t-cell-granule" cx="8" cy="-1" r="3.2" />
      <circle class="t-cell-granule" cx="17" cy="1" r="2.8" />
    </g>
  </g>
  <g data-aoc-panel="tier-1" transform="translate(108 36)">
    <g data-aoc-part="membrane" class="aoc-motion--breathe">
      <path class="t-cell-body" d="M-13-23C0-26 14-18 15-7C18 7 8 21-5 22C-20 24-28 13-26 0C-28-13-23-21-13-23Z" />
      <ellipse class="t-cell-nucleus" cx="-10" cy="1" rx="9.5" ry="8.5" />
      <circle class="tower-tier-light" cx="-17" cy="16" r="3" />
    </g>
    <g data-aoc-part="receptors" class="aoc-motion--receptor">
      <path class="t-cell-receptor" d="M-19-18L-24-26M-19-18L-12-25M-21 13L-28 18M-21 13L-22 22" />
      <path class="t-cell-synapse" d="M8-15Q25-12 32 0Q25 12 8 15" />
      <path class="t-cell-lytic-channel" d="M4-8L24-5L33 0L24 5L4 8Z" />
      <path class="t-cell-synapse-secondary" d="M12-10Q23-8 28 0Q23 8 12 10" />
    </g>
    <g data-aoc-part="granules" class="aoc-motion--granules">
      <circle class="t-cell-granule" cx="7" cy="-3" r="3.2" />
      <circle class="t-cell-granule" cx="16" cy="0" r="3" />
      <circle class="t-cell-granule" cx="24" cy="1" r="2.4" />
    </g>
  </g>
  <g data-aoc-panel="tier-2" transform="translate(180 36)">
    <g data-aoc-part="membrane" class="aoc-motion--breathe">
      <path class="t-cell-body" d="M-14-24C0-27 15-19 16-7C19 8 9 22-5 23C-21 25-29 14-27 0C-29-14-24-22-14-24Z" />
      <ellipse class="t-cell-nucleus" cx="-11" cy="1" rx="10" ry="9" />
      <circle class="tower-tier-light" cx="-18" cy="17" r="3" />
      <circle class="tower-tier-light" cx="-20" cy="9" r="2.5" />
    </g>
    <g data-aoc-part="receptors" class="aoc-motion--receptor">
      <path class="t-cell-receptor" d="M-20-19L-25-27M-20-19L-13-26M-22 14L-29 19M-22 14L-23 23M-5-22L-7-30" />
      <path class="t-cell-synapse" d="M7-16Q26-13 34 0Q26 13 7 16" />
      <path class="t-cell-lytic-channel" d="M3-9L24-6L34 0L24 6L3 9Z" />
      <path class="t-cell-synapse-secondary" d="M11-11Q24-9 30 0Q24 9 11 11" />
    </g>
    <g data-aoc-part="granules" class="aoc-motion--granules">
      <circle class="t-cell-granule" cx="6" cy="-5" r="3.3" />
      <circle class="t-cell-granule" cx="14" cy="-1" r="3.1" />
      <circle class="t-cell-granule" cx="22" cy="1" r="2.8" />
      <circle class="t-cell-granule" cx="28" cy="0" r="2.2" />
    </g>
  </g>
  <g data-aoc-panel="tier-3" transform="translate(252 36)">
    <g data-aoc-part="membrane" class="aoc-motion--breathe">
      <path class="t-cell-body t-cell-body-elite" d="M-15-25C0-28 16-20 17-7C20 9 10 23-5 24C-22 26-30 15-28 0C-30-15-25-23-15-25Z" />
      <ellipse class="t-cell-nucleus" cx="-12" cy="1" rx="10" ry="9" />
      <circle class="tower-tier-light" cx="-19" cy="18" r="3" />
      <circle class="tower-tier-light" cx="-21" cy="10" r="2.5" />
      <circle class="tower-tier-light" cx="-22" cy="2" r="2" />
    </g>
    <g data-aoc-part="receptors" class="aoc-motion--receptor">
      <path class="t-cell-receptor" d="M-21-20L-26-28M-21-20L-14-27M-23 15L-30 20M-23 15L-24 24M-6-23L-8-31" />
      <path class="t-cell-synapse t-cell-synapse-elite" d="M6-17Q27-14 35 0Q27 14 6 17" />
      <path class="t-cell-lytic-channel" d="M2-10L24-7L35 0L24 7L2 10Z" />
      <path class="t-cell-synapse-secondary" d="M10-12Q25-10 32 0Q25 10 10 12" />
      <path class="t-cell-synapse-secondary" d="M14-7Q26-5 30 0Q26 5 14 7" />
    </g>
    <g data-aoc-part="granules" class="aoc-motion--granules">
      <circle class="t-cell-granule" cx="5" cy="-6" r="3.4" />
      <circle class="t-cell-granule" cx="13" cy="-2" r="3.2" />
      <circle class="t-cell-granule" cx="21" cy="1" r="3" />
      <circle class="t-cell-granule" cx="28" cy="0" r="2.5" />
      <circle class="t-cell-granule" cx="13" cy="6" r="2.3" />
    </g>
  </g>
</svg>
