<svg xmlns="http://www.w3.org/2000/svg" data-aoc-kind="tower" data-aoc-key="antibody"
  data-aoc-frame-width="72" data-aoc-frame-height="72" viewBox="0 0 288 72">
  <g data-aoc-editor-only="true"><rect width="288" height="72" fill="#ebfbf7" /><text x="5" y="9" font-size="7" font-weight="700">Antibody molecular launchers, tiers 1-4</text></g>
  <g data-aoc-panel="tier-0" transform="translate(36 36)">
    <g data-aoc-part="base">
      <circle class="tower-base" r="22" />
      <circle class="antibody-platform" cx="-7" cy="0" r="14" />
      <path class="antibody-rail" d="M-18-6H2M-18 6H2" />
    </g>
    <g data-aoc-part="receptor" class="aoc-motion--align">
      <path class="antibody-y" d="M-12 0H7M7 0L25-13M7 0L25 13" />
      <circle class="antibody-binding" cx="25" cy="-13" r="3.5" />
      <circle class="antibody-binding" cx="25" cy="13" r="3.5" />
      <circle class="antibody-hub" cx="7" cy="0" r="4" />
    </g>
    <g data-aoc-part="release" class="aoc-motion--release">
      <circle class="antibody-molecule" cx="32" cy="0" r="3" />
    </g>
  </g>
  <g data-aoc-panel="tier-1" transform="translate(108 36)">
    <g data-aoc-part="base">
      <circle class="tower-base" r="23" />
      <circle class="antibody-platform" cx="-8" cy="0" r="15" />
      <path class="antibody-rail" d="M-20-7H3M-20 7H3" />
      <circle class="tower-tier-light" cx="-18" cy="16" r="3" />
    </g>
    <g data-aoc-part="receptor" class="aoc-motion--align">
      <path class="antibody-y" d="M-13 0H7M7 0L26-14M7 0L26 14" />
      <circle class="antibody-binding" cx="26" cy="-14" r="3.7" />
      <circle class="antibody-binding" cx="26" cy="14" r="3.7" />
      <circle class="antibody-hub" cx="7" cy="0" r="4.2" />
      <path class="antibody-stabilizer" d="M-5-9L5 0L-5 9" />
    </g>
    <g data-aoc-part="release" class="aoc-motion--release">
      <circle class="antibody-molecule" cx="33" cy="-4" r="3" />
      <circle class="antibody-molecule" cx="33" cy="5" r="2.5" />
    </g>
  </g>
  <g data-aoc-panel="tier-2" transform="translate(180 36)">
    <g data-aoc-part="base">
      <circle class="tower-base" r="24" />
      <circle class="antibody-platform" cx="-9" cy="0" r="16" />
      <path class="antibody-rail" d="M-21-8H4M-21 8H4" />
      <circle class="tower-tier-light" cx="-19" cy="17" r="3" />
      <circle class="tower-tier-light" cx="-21" cy="9" r="2.5" />
    </g>
    <g data-aoc-part="receptor" class="aoc-motion--align">
      <path class="antibody-y" d="M-14 0H7M7 0L27-15M7 0L27 15" />
      <path class="antibody-y antibody-y-secondary" d="M-7-8H5M5-8L18-18M5-8L19 0" />
      <circle class="antibody-binding" cx="27" cy="-15" r="3.8" />
      <circle class="antibody-binding" cx="27" cy="15" r="3.8" />
      <circle class="antibody-hub" cx="7" cy="0" r="4.4" />
      <path class="antibody-stabilizer" d="M-6-10L5 0L-6 10" />
    </g>
    <g data-aoc-part="release" class="aoc-motion--release">
      <circle class="antibody-molecule" cx="34" cy="-7" r="3.2" />
      <circle class="antibody-molecule" cx="34" cy="2" r="2.7" />
      <circle class="antibody-molecule" cx="31" cy="10" r="2.2" />
    </g>
  </g>
  <g data-aoc-panel="tier-3" transform="translate(252 36)">
    <g data-aoc-part="base">
      <circle class="tower-base tower-base-elite" r="25" />
      <circle class="antibody-platform" cx="-10" cy="0" r="17" />
      <path class="antibody-rail" d="M-22-9H5M-22 9H5M-16-14H0M-16 14H0" />
      <circle class="tower-tier-light" cx="-20" cy="18" r="3" />
      <circle class="tower-tier-light" cx="-22" cy="10" r="2.5" />
      <circle class="tower-tier-light" cx="-23" cy="2" r="2" />
    </g>
    <g data-aoc-part="receptor" class="aoc-motion--align">
      <path class="antibody-y antibody-y-elite" d="M-15 0H7M7 0L28-16M7 0L28 16" />
      <path class="antibody-y antibody-y-secondary" d="M-8-9H4M4-9L18-19M4-9L20 0" />
      <path class="antibody-y antibody-y-secondary" d="M-8 9H4M4 9L18 19M4 9L20 0" />
      <circle class="antibody-binding" cx="28" cy="-16" r="4" />
      <circle class="antibody-binding" cx="28" cy="16" r="4" />
      <circle class="antibody-hub" cx="7" cy="0" r="4.6" />
      <path class="antibody-stabilizer" d="M-7-11L5 0L-7 11" />
    </g>
    <g data-aoc-part="release" class="aoc-motion--release">
      <circle class="antibody-molecule" cx="34" cy="-8" r="3.4" />
      <circle class="antibody-molecule" cx="34" cy="1" r="2.9" />
      <circle class="antibody-molecule" cx="32" cy="10" r="2.4" />
      <circle class="antibody-release-ring" cx="31" cy="1" r="9" />
    </g>
  </g>
</svg>
